<svg width="60" height="60" viewBox="0 0 60 60" fill="none" xmlns="http://www.w3.org/2000/svg">
<circle cx="30" cy="30" r="30" fill="#00A3B3"/>
<path d="M24.6833 22.2412C25.4288 22.2412 26.1183 22.2995 26.7483 22.4722C27.32 22.5773 27.8657 22.7928 28.3548 23.1069C28.8145 23.395 29.1587 23.7999 29.3873 24.319C29.6172 24.8382 29.7315 25.474 29.7315 26.1659C29.7315 26.9744 29.56 27.6662 29.1587 28.1854C28.8145 28.7057 28.2405 29.1665 27.5522 29.513C28.5275 29.8024 29.273 30.3215 29.7315 31.0134C30.1912 31.7064 30.4782 32.572 30.4782 33.5532C30.4782 34.3617 30.3055 35.0535 30.0185 35.631C29.7315 36.2085 29.273 36.7277 28.7562 37.0742C28.1948 37.4456 27.5742 37.7186 26.921 37.8815C26.2327 38.0554 25.5443 38.1709 24.856 38.1709H17.1665V22.2412H24.6833ZM24.2237 28.7045C24.8548 28.7045 25.3717 28.5319 25.773 28.2437C26.1743 27.9555 26.347 27.4352 26.347 26.8005C26.347 26.454 26.2887 26.1075 26.1743 25.8777C26.06 25.6467 25.8873 25.4729 25.6587 25.3002C25.4288 25.1847 25.199 25.0692 24.912 25.012C24.625 24.9537 24.3392 24.9537 23.9938 24.9537H20.6665V28.7057H24.2248L24.2237 28.7045ZM24.3963 35.5155C24.7405 35.5155 25.0847 35.4572 25.3717 35.4C25.6614 35.3449 25.9355 35.2266 26.1743 35.0535C26.4081 34.8846 26.6037 34.6684 26.7483 34.4189C26.8627 34.1307 26.9782 33.7842 26.9782 33.3805C26.9782 32.572 26.7483 31.9945 26.2898 31.5909C25.8302 31.2444 25.199 31.0717 24.4535 31.0717H20.6665V35.5167H24.3963V35.5155ZM35.4703 35.4572C35.9288 35.9192 36.6172 36.1502 37.5353 36.1502C38.1665 36.1502 38.7405 35.9775 39.199 35.6894C39.6587 35.3429 39.9457 34.9964 40.06 34.6499H42.8717C42.412 36.0347 41.7237 37.0159 40.8067 37.6505C39.8873 38.228 38.7977 38.5745 37.4782 38.5745C36.6339 38.5771 35.7968 38.4204 35.0107 38.1125C34.3033 37.8472 33.6725 37.4111 33.1743 36.8432C32.6415 36.3119 32.2477 35.6576 32.0275 34.938C31.7405 34.1879 31.625 33.3805 31.625 32.4565C31.625 31.5909 31.7405 30.7835 32.0275 30.0322C32.3034 29.309 32.7117 28.6435 33.2315 28.0699C33.7483 27.5507 34.3795 27.0899 35.0678 26.8005C35.834 26.4926 36.6525 26.3357 37.4782 26.3385C38.4535 26.3385 39.3145 26.5124 40.06 26.916C40.8067 27.3197 41.3795 27.7817 41.8392 28.4747C42.3081 29.1403 42.6575 29.8825 42.8717 30.668C42.986 31.4754 43.0432 32.2839 42.986 33.2067H34.6665C34.6665 34.1307 35.0107 34.9964 35.4703 35.4584V35.4572ZM39.0847 29.3975C38.6833 28.9939 38.0522 28.7629 37.3055 28.7629C36.8677 28.7563 36.4348 28.8551 36.0432 29.051C35.699 29.2249 35.4703 29.4559 35.2405 29.6869C35.0293 29.91 34.8896 30.1911 34.8392 30.4942C34.7808 30.7835 34.7237 31.0134 34.7237 31.2444H39.8873C39.773 30.3787 39.486 29.8024 39.0847 29.3975ZM34.0353 23.3379H40.4613V24.8965H34.0365V23.3379H34.0353Z" fill="white"/>
</svg>
