<svg width="538" height="308" viewBox="0 0 538 308" fill="none" xmlns="http://www.w3.org/2000/svg">
<path d="M5.03377 114H17.0218C22.7098 114 26.4538 111.696 26.4538 107.088V107.016C26.4538 103.668 24.6538 101.94 21.7378 100.824C23.5378 99.888 25.0498 98.196 25.0498 95.388V95.316C25.0498 93.624 24.4738 92.184 23.3218 91.032C21.8458 89.556 19.6498 88.8 16.7338 88.8H5.03377V114ZM19.5418 96.324C19.5418 98.196 17.9938 98.988 15.5458 98.988H10.4338V93.66H15.9058C18.2458 93.66 19.5418 94.56 19.5418 96.252V96.324ZM20.9458 106.404C20.9458 108.276 19.4698 109.14 17.0218 109.14H10.4338V103.596H16.8418C19.7218 103.596 20.9458 104.64 20.9458 106.332V106.404Z" fill="url(#paint0_linear_184_802)" fill-opacity="0.8"/>
<path d="M288.439 157H322.551V148.232H298.231V138.824H319.351V130.056H298.231V120.968H322.231V112.2H288.439V157Z" fill="url(#paint1_linear_184_802)" fill-opacity="0.8"/>
<path d="M297.176 235H301.796V226.87H311.816V222.67H301.796V218.2H313.166V214H297.176V235Z" fill="url(#paint2_linear_184_802)" fill-opacity="0.8"/>
<path d="M172.367 208.36C176.207 208.36 179.177 206.86 181.337 205.03V195.91H172.217V199.9H176.867V202.9C175.697 203.74 174.227 204.16 172.517 204.16C168.797 204.16 166.157 201.34 166.157 197.5V197.44C166.157 193.87 168.827 190.9 172.187 190.9C174.587 190.9 176.087 191.68 177.677 193.03L180.587 189.52C178.427 187.66 176.087 186.64 172.337 186.64C165.977 186.64 161.327 191.53 161.327 197.5V197.56C161.327 203.8 165.827 208.36 172.367 208.36Z" fill="url(#paint3_linear_184_802)" fill-opacity="0.8"/>
<path d="M242.348 293H247.892V282.884H258.116V293H263.66V267.8H258.116V277.772H247.892V267.8H242.348V293Z" fill="url(#paint4_linear_184_802)" fill-opacity="0.8"/>
<path d="M106.729 242H112.273V216.8H106.729V242Z" fill="url(#paint5_linear_184_802)" fill-opacity="0.8"/>
<path d="M384.676 123.72C390.148 123.72 394.684 122.136 397.78 119.04C400.876 115.944 402.532 111.624 402.532 105.576V72.6H391.156V105.072C391.156 110.904 388.636 113.424 384.388 113.424C380.86 113.424 378.052 111.552 375.172 108.384L368.188 116.16C371.644 120.264 376.828 123.72 384.676 123.72Z" fill="url(#paint6_linear_184_802)" fill-opacity="0.8"/>
<path d="M193.501 140H203.357V126.304L208.541 120.928L222.429 140H234.269L215.197 114.208L233.501 95.2H221.405L203.357 114.784V95.2H193.501V140Z" fill="url(#paint7_linear_184_802)" fill-opacity="0.8"/>
<path d="M20.2589 219H56.4749V208.92H31.3469V168.6H20.2589V219Z" fill="url(#paint8_linear_184_802)" fill-opacity="0.8"/>
<path d="M300.196 80H307.444V58.208L316.804 72.416H316.996L326.452 58.064V80H333.796V46.4H325.828L316.996 60.608L308.164 46.4H300.196V80Z" fill="url(#paint9_linear_184_802)" fill-opacity="0.8"/>
<path d="M498.169 255H502.729V241.65L512.899 255H516.829V234H512.269V246.93L502.429 234H498.169V255Z" fill="url(#paint10_linear_184_802)" fill-opacity="0.8"/>
<path d="M363.961 196.576C374.329 196.576 381.865 188.752 381.865 179.2V179.104C381.865 169.552 374.425 161.824 364.057 161.824C353.689 161.824 346.153 169.648 346.153 179.2V179.296C346.153 188.848 353.593 196.576 363.961 196.576ZM364.057 189.76C358.105 189.76 353.881 184.96 353.881 179.2V179.104C353.881 173.344 358.009 168.64 363.961 168.64C369.913 168.64 374.137 173.44 374.137 179.2V179.296C374.137 185.056 370.009 189.76 364.057 189.76Z" fill="url(#paint11_linear_184_802)" fill-opacity="0.8"/>
<path d="M61.501 69H71.357V55.56H78.845C88.893 55.56 96.957 50.248 96.957 39.816V39.688C96.957 30.472 90.493 24.2 79.805 24.2H61.501V69ZM71.357 46.792V33.096H78.973C83.901 33.096 86.973 35.464 86.973 39.88V40.008C86.973 43.848 84.093 46.792 79.165 46.792H71.357Z" fill="url(#paint12_linear_184_802)" fill-opacity="0.8"/>
<path d="M74.9659 124.36L72.8059 122.53C73.9759 120.76 74.6659 118.75 74.6659 116.5V116.44C74.6659 110.47 70.0159 105.64 63.5359 105.64C57.0559 105.64 52.3459 110.53 52.3459 116.5V116.56C52.3459 122.53 56.9959 127.36 63.4759 127.36C65.8459 127.36 67.9159 126.73 69.7159 125.56L72.0259 127.63L74.9659 124.36ZM63.5359 123.1C59.8159 123.1 57.1759 120.1 57.1759 116.5V116.44C57.1759 112.84 59.7559 109.9 63.4759 109.9C67.1959 109.9 69.8359 112.9 69.8359 116.5V116.56C69.8359 117.61 69.6559 118.57 69.2659 119.44L65.8159 116.32L62.8759 119.62L66.2659 122.53C65.4559 122.89 64.5859 123.1 63.5359 123.1Z" fill="url(#paint13_linear_184_802)" fill-opacity="0.8"/>
<path d="M448.016 127H453.56V118.936H457.916L463.316 127H469.796L463.64 118C466.844 116.812 469.04 114.256 469.04 110.188V110.116C469.04 107.704 468.32 105.796 466.88 104.356C465.188 102.664 462.74 101.8 459.536 101.8H448.016V127ZM453.56 114.04V106.804H459.068C461.804 106.804 463.424 107.992 463.424 110.404V110.476C463.424 112.636 461.912 114.04 459.176 114.04H453.56Z" fill="url(#paint14_linear_184_802)" fill-opacity="0.8"/>
<path d="M146.974 72.36C152.41 72.36 156.226 69.552 156.226 64.548V64.476C156.226 60.084 153.346 58.284 148.234 56.916C143.878 55.764 142.798 55.296 142.798 53.604V53.532C142.798 52.272 143.878 51.336 146.038 51.336C148.198 51.336 150.322 52.272 152.59 53.82L155.47 49.644C152.878 47.592 149.818 46.44 146.11 46.44C140.926 46.44 137.29 49.464 137.29 54.036V54.108C137.29 59.076 140.53 60.552 145.642 61.812C149.854 62.856 150.718 63.612 150.718 65.016V65.088C150.718 66.564 149.386 67.464 147.082 67.464C144.202 67.464 141.862 66.276 139.558 64.404L136.282 68.328C139.306 71.064 143.122 72.36 146.974 72.36Z" fill="url(#paint15_linear_184_802)" fill-opacity="0.8"/>
<path d="M449.294 58H456.686V31.216H466.91V24.4H439.07V31.216H449.294V58Z" fill="url(#paint16_linear_184_802)" fill-opacity="0.8"/>
<path d="M457.431 282.396C464.199 282.396 468.483 278.652 468.483 271.02V256.8H462.939V271.236C462.939 275.268 460.923 277.284 457.503 277.284C454.083 277.284 452.067 275.196 452.067 271.056V256.8H446.523V271.2C446.523 278.652 450.663 282.396 457.431 282.396Z" fill="url(#paint17_linear_184_802)" fill-opacity="0.8"/>
<path d="M510.052 96.18H514.948L525.136 70.8H519.16L512.572 88.548L505.984 70.8H499.864L510.052 96.18Z" fill="url(#paint18_linear_184_802)" fill-opacity="0.8"/>
<path d="M493.482 187.24H499.914L507.498 165.256L515.082 187.24H521.514L532.986 153.4H525.258L518.298 176.152L510.762 153.304H504.426L496.89 176.152L489.93 153.4H482.01L493.482 187.24Z" fill="url(#paint19_linear_184_802)" fill-opacity="0.8"/>
<path d="M241.587 17.2L232.051 31.728L222.707 17.2H211.187L226.163 39.216L210.547 62H221.747L231.859 46.64L241.907 62H253.427L237.811 39.088L252.787 17.2H241.587Z" fill="url(#paint20_linear_184_802)" fill-opacity="0.8"/>
<path d="M80.1927 187H84.8127V178.63L92.8827 166H87.6327L82.5327 174.43L77.5227 166H72.1227L80.1927 178.72V187Z" fill="url(#paint21_linear_184_802)" fill-opacity="0.8"/>
<path d="M214.691 220H222.227L225.299 212.464H239.507L242.579 220H250.307L235.907 186.16H229.091L214.691 220ZM227.939 205.936L232.403 195.04L236.867 205.936H227.939Z" fill="url(#paint22_linear_184_802)" fill-opacity="0.8"/>
<path d="M73.7699 275H91.2599V270.95H79.7099L91.2599 257.51V254H74.1299V258.05H85.3199L73.7699 271.49V275Z" fill="url(#paint23_linear_184_802)" fill-opacity="0.8"/>
<path d="M428.243 210.768C436.947 210.768 442.003 207.696 446.611 202.768L440.339 196.432C436.819 199.696 433.683 201.68 428.563 201.68C420.883 201.68 415.571 195.28 415.571 187.6V187.472C415.571 179.792 421.011 173.52 428.563 173.52C433.107 173.52 436.499 175.44 440.019 178.576L446.291 171.344C442.195 167.248 437.011 164.432 428.627 164.432C414.867 164.432 405.267 174.864 405.267 187.6V187.728C405.267 200.592 415.059 210.768 428.243 210.768Z" fill="url(#paint24_linear_184_802)" fill-opacity="0.8"/>
<path d="M111.345 166H128.817C142.897 166 152.625 156.208 152.625 143.6V143.472C152.625 130.864 142.897 121.2 128.817 121.2H111.345V166ZM128.817 130.096C136.817 130.096 142.321 135.664 142.321 143.6V143.728C142.321 151.664 136.817 157.104 128.817 157.104H121.201V130.096H128.817Z" fill="url(#paint25_linear_184_802)" fill-opacity="0.8"/>
<defs>
<linearGradient id="paint0_linear_184_802" x1="15" y1="80" x2="15" y2="129" gradientUnits="userSpaceOnUse">
<stop offset="0.234375" stop-color="#1E5180" stop-opacity="0.2"/>
<stop offset="0.71875" stop-color="#00A3B3" stop-opacity="0.2"/>
</linearGradient>
<linearGradient id="paint1_linear_184_802" x1="304.5" y1="95" x2="304.5" y2="182" gradientUnits="userSpaceOnUse">
<stop offset="0.234375" stop-color="#1E5180" stop-opacity="0.2"/>
<stop offset="0.71875" stop-color="#00A3B3" stop-opacity="0.2"/>
</linearGradient>
<linearGradient id="paint2_linear_184_802" x1="304.5" y1="206" x2="304.5" y2="247" gradientUnits="userSpaceOnUse">
<stop offset="0.234375" stop-color="#1E5180" stop-opacity="0.2"/>
<stop offset="0.71875" stop-color="#00A3B3" stop-opacity="0.2"/>
</linearGradient>
<linearGradient id="paint3_linear_184_802" x1="171.5" y1="179" x2="171.5" y2="219" gradientUnits="userSpaceOnUse">
<stop offset="0.234375" stop-color="#1E5180" stop-opacity="0.2"/>
<stop offset="0.71875" stop-color="#00A3B3" stop-opacity="0.2"/>
</linearGradient>
<linearGradient id="paint4_linear_184_802" x1="253" y1="259" x2="253" y2="308" gradientUnits="userSpaceOnUse">
<stop offset="0.234375" stop-color="#1E5180" stop-opacity="0.2"/>
<stop offset="0.71875" stop-color="#00A3B3" stop-opacity="0.2"/>
</linearGradient>
<linearGradient id="paint5_linear_184_802" x1="109.5" y1="208" x2="109.5" y2="257" gradientUnits="userSpaceOnUse">
<stop offset="0.234375" stop-color="#1E5180" stop-opacity="0.2"/>
<stop offset="0.71875" stop-color="#00A3B3" stop-opacity="0.2"/>
</linearGradient>
<linearGradient id="paint6_linear_184_802" x1="387.5" y1="54" x2="387.5" y2="151" gradientUnits="userSpaceOnUse">
<stop offset="0.234375" stop-color="#1E5180" stop-opacity="0.2"/>
<stop offset="0.71875" stop-color="#00A3B3" stop-opacity="0.2"/>
</linearGradient>
<linearGradient id="paint7_linear_184_802" x1="211.5" y1="78" x2="211.5" y2="165" gradientUnits="userSpaceOnUse">
<stop offset="0.234375" stop-color="#1E5180" stop-opacity="0.2"/>
<stop offset="0.71875" stop-color="#00A3B3" stop-opacity="0.2"/>
</linearGradient>
<linearGradient id="paint8_linear_184_802" x1="36.5" y1="150" x2="36.5" y2="248" gradientUnits="userSpaceOnUse">
<stop offset="0.234375" stop-color="#1E5180" stop-opacity="0.2"/>
<stop offset="0.71875" stop-color="#00A3B3" stop-opacity="0.2"/>
</linearGradient>
<linearGradient id="paint9_linear_184_802" x1="317" y1="34" x2="317" y2="100" gradientUnits="userSpaceOnUse">
<stop offset="0.234375" stop-color="#1E5180" stop-opacity="0.2"/>
<stop offset="0.71875" stop-color="#00A3B3" stop-opacity="0.2"/>
</linearGradient>
<linearGradient id="paint10_linear_184_802" x1="507.5" y1="226" x2="507.5" y2="267" gradientUnits="userSpaceOnUse">
<stop offset="0.234375" stop-color="#1E5180" stop-opacity="0.2"/>
<stop offset="0.71875" stop-color="#00A3B3" stop-opacity="0.2"/>
</linearGradient>
<linearGradient id="paint11_linear_184_802" x1="364" y1="150" x2="364" y2="216" gradientUnits="userSpaceOnUse">
<stop offset="0.234375" stop-color="#1E5180" stop-opacity="0.2"/>
<stop offset="0.71875" stop-color="#00A3B3" stop-opacity="0.2"/>
</linearGradient>
<linearGradient id="paint12_linear_184_802" x1="77.5" y1="7" x2="77.5" y2="95" gradientUnits="userSpaceOnUse">
<stop offset="0.234375" stop-color="#1E5180" stop-opacity="0.2"/>
<stop offset="0.71875" stop-color="#00A3B3" stop-opacity="0.2"/>
</linearGradient>
<linearGradient id="paint13_linear_184_802" x1="63.5" y1="98" x2="63.5" y2="139" gradientUnits="userSpaceOnUse">
<stop offset="0.234375" stop-color="#1E5180" stop-opacity="0.2"/>
<stop offset="0.71875" stop-color="#00A3B3" stop-opacity="0.2"/>
</linearGradient>
<linearGradient id="paint14_linear_184_802" x1="458" y1="93" x2="458" y2="142" gradientUnits="userSpaceOnUse">
<stop offset="0.234375" stop-color="#1E5180" stop-opacity="0.2"/>
<stop offset="0.71875" stop-color="#00A3B3" stop-opacity="0.2"/>
</linearGradient>
<linearGradient id="paint15_linear_184_802" x1="146.5" y1="38" x2="146.5" y2="87" gradientUnits="userSpaceOnUse">
<stop offset="0.234375" stop-color="#1E5180" stop-opacity="0.2"/>
<stop offset="0.71875" stop-color="#00A3B3" stop-opacity="0.2"/>
</linearGradient>
<linearGradient id="paint16_linear_184_802" x1="453" y1="12" x2="453" y2="78" gradientUnits="userSpaceOnUse">
<stop offset="0.234375" stop-color="#1E5180" stop-opacity="0.2"/>
<stop offset="0.71875" stop-color="#00A3B3" stop-opacity="0.2"/>
</linearGradient>
<linearGradient id="paint17_linear_184_802" x1="457.5" y1="248" x2="457.5" y2="297" gradientUnits="userSpaceOnUse">
<stop offset="0.234375" stop-color="#1E5180" stop-opacity="0.2"/>
<stop offset="0.71875" stop-color="#00A3B3" stop-opacity="0.2"/>
</linearGradient>
<linearGradient id="paint18_linear_184_802" x1="512.5" y1="62" x2="512.5" y2="111" gradientUnits="userSpaceOnUse">
<stop offset="0.234375" stop-color="#1E5180" stop-opacity="0.2"/>
<stop offset="0.71875" stop-color="#00A3B3" stop-opacity="0.2"/>
</linearGradient>
<linearGradient id="paint19_linear_184_802" x1="507.5" y1="141" x2="507.5" y2="207" gradientUnits="userSpaceOnUse">
<stop offset="0.234375" stop-color="#1E5180" stop-opacity="0.2"/>
<stop offset="0.71875" stop-color="#00A3B3" stop-opacity="0.2"/>
</linearGradient>
<linearGradient id="paint20_linear_184_802" x1="232" y1="0" x2="232" y2="88" gradientUnits="userSpaceOnUse">
<stop offset="0.234375" stop-color="#1E5180" stop-opacity="0.2"/>
<stop offset="0.71875" stop-color="#00A3B3" stop-opacity="0.2"/>
</linearGradient>
<linearGradient id="paint21_linear_184_802" x1="82.5" y1="158" x2="82.5" y2="199" gradientUnits="userSpaceOnUse">
<stop offset="0.234375" stop-color="#1E5180" stop-opacity="0.2"/>
<stop offset="0.71875" stop-color="#00A3B3" stop-opacity="0.2"/>
</linearGradient>
<linearGradient id="paint22_linear_184_802" x1="232.5" y1="174" x2="232.5" y2="240" gradientUnits="userSpaceOnUse">
<stop offset="0.234375" stop-color="#1E5180" stop-opacity="0.2"/>
<stop offset="0.71875" stop-color="#00A3B3" stop-opacity="0.2"/>
</linearGradient>
<linearGradient id="paint23_linear_184_802" x1="82.5" y1="246" x2="82.5" y2="286" gradientUnits="userSpaceOnUse">
<stop offset="0.234375" stop-color="#1E5180" stop-opacity="0.2"/>
<stop offset="0.71875" stop-color="#00A3B3" stop-opacity="0.2"/>
</linearGradient>
<linearGradient id="paint24_linear_184_802" x1="425.5" y1="148" x2="425.5" y2="235" gradientUnits="userSpaceOnUse">
<stop offset="0.234375" stop-color="#1E5180" stop-opacity="0.2"/>
<stop offset="0.71875" stop-color="#00A3B3" stop-opacity="0.2"/>
</linearGradient>
<linearGradient id="paint25_linear_184_802" x1="131" y1="104" x2="131" y2="191" gradientUnits="userSpaceOnUse">
<stop offset="0.234375" stop-color="#1E5180" stop-opacity="0.2"/>
<stop offset="0.71875" stop-color="#00A3B3" stop-opacity="0.2"/>
</linearGradient>
</defs>
</svg>
