<svg width="60" height="60" viewBox="0 0 60 60" fill="none" xmlns="http://www.w3.org/2000/svg">
<circle cx="30" cy="30" r="30" fill="#00A3B3"/>
<path d="M39.5417 18.875C40.2268 18.875 40.8839 19.1472 41.3684 19.6316C41.8528 20.1161 42.125 20.7732 42.125 21.4583V39.5417C42.125 40.2268 41.8528 40.8839 41.3684 41.3684C40.8839 41.8528 40.2268 42.125 39.5417 42.125H21.4583C20.7732 42.125 20.1161 41.8528 19.6316 41.3684C19.1472 40.8839 18.875 40.2268 18.875 39.5417V21.4583C18.875 20.7732 19.1472 20.1161 19.6316 19.6316C20.1161 19.1472 20.7732 18.875 21.4583 18.875H39.5417ZM38.8958 38.8958V32.05C38.8958 30.9332 38.4522 29.8622 37.6625 29.0725C36.8728 28.2828 35.8018 27.8392 34.685 27.8392C33.5871 27.8392 32.3083 28.5108 31.6883 29.5183V28.0846H28.0846V38.8958H31.6883V32.5279C31.6883 31.5333 32.4892 30.7196 33.4838 30.7196C33.9634 30.7196 34.4233 30.9101 34.7624 31.2492C35.1016 31.5884 35.2921 32.0483 35.2921 32.5279V38.8958H38.8958ZM23.8867 26.0567C24.4622 26.0567 25.0141 25.828 25.4211 25.4211C25.828 25.0141 26.0567 24.4622 26.0567 23.8867C26.0567 22.6854 25.0879 21.7037 23.8867 21.7037C23.3077 21.7037 22.7525 21.9337 22.3431 22.3431C21.9337 22.7525 21.7037 23.3077 21.7037 23.8867C21.7037 25.0879 22.6854 26.0567 23.8867 26.0567ZM25.6821 38.8958V28.0846H22.1042V38.8958H25.6821Z" fill="white"/>
</svg>
