<svg width="61" height="60" viewBox="0 0 61 60" fill="none" xmlns="http://www.w3.org/2000/svg">
<ellipse cx="30.5" cy="30" rx="30.5" ry="30" fill="#00A3B3"/>
<path d="M31.0466 18.3331C24.6766 18.3331 19.4849 23.5247 19.4849 29.8947C19.4849 31.9364 20.0216 33.9197 21.0249 35.6697L19.3916 41.6664L25.5166 40.0564C27.2083 40.9781 29.1099 41.4681 31.0466 41.4681C37.4166 41.4681 42.6083 36.2764 42.6083 29.9064C42.6083 26.8147 41.4066 23.9097 39.2249 21.7281C38.1553 20.6477 36.8813 19.791 35.4772 19.2081C34.073 18.6253 32.5669 18.3278 31.0466 18.3331ZM31.0583 20.2814C33.6249 20.2814 36.0283 21.2847 37.8483 23.1047C38.7415 23.9977 39.4496 25.0581 39.9321 26.2253C40.4146 27.3925 40.6619 28.6434 40.6599 29.9064C40.6599 35.2031 36.3433 39.5081 31.0466 39.5081C29.3199 39.5081 27.6283 39.0531 26.1583 38.1664L25.8083 37.9681L22.1683 38.9247L23.1366 35.3781L22.9033 35.0047C21.9395 33.4749 21.4298 31.7029 21.4333 29.8947C21.4449 24.5981 25.7499 20.2814 31.0583 20.2814ZM26.9516 24.5514C26.7649 24.5514 26.4499 24.6214 26.1816 24.9131C25.9249 25.2047 25.1666 25.9164 25.1666 27.3281C25.1666 28.7514 26.2049 30.1164 26.3333 30.3147C26.4966 30.5131 28.3866 33.4297 31.2916 34.6664C31.9799 34.9814 32.5166 35.1564 32.9366 35.2847C33.6249 35.5064 34.2549 35.4714 34.7566 35.4014C35.3166 35.3197 36.4599 34.7014 36.7049 34.0247C36.9499 33.3481 36.9499 32.7764 36.8799 32.6481C36.7983 32.5314 36.6116 32.4614 36.3199 32.3331C36.0283 32.1697 34.6049 31.4697 34.3483 31.3764C34.0799 31.2831 33.9166 31.2364 33.6949 31.5164C33.5083 31.8081 32.9483 32.4614 32.7849 32.6481C32.6099 32.8464 32.4466 32.8697 32.1666 32.7297C31.8633 32.5781 30.9299 32.2747 29.8333 31.2947C28.9699 30.5247 28.3983 29.5797 28.2233 29.2881C28.0833 29.0081 28.2116 28.8331 28.3516 28.7047C28.4799 28.5764 28.6666 28.3664 28.7833 28.1914C28.9349 28.0281 28.9816 27.8997 29.0749 27.7131C29.1683 27.5147 29.1216 27.3514 29.0516 27.2114C28.9816 27.0831 28.3983 25.6364 28.1533 25.0647C27.9199 24.5047 27.6866 24.5747 27.4999 24.5631C27.3366 24.5631 27.1499 24.5514 26.9516 24.5514Z" fill="white"/>
</svg>
